<?xml version="1.0"?><svg width="1100" height="800" xmlns="http://www.w3.org/2000/svg">
 <title>batman</title>
 <g>
  <title>Layer 1</title>
  <path fill="#000000" fill-rule="evenodd" stroke="#000000" stroke-width="0.5px" d="m691.200012,102.800003l-0.200012,-0.300003l-0.200012,-0.300003l-0.299988,-0.199997l-0.299988,-0.199997l-0.200012,-0.300003l-0.200012,-0.300003l-0.299988,-0.199997l-0.299988,-0.199997l-0.200012,-0.300003l-0.200012,-0.300003l-0.299988,-0.199997l-0.299988,-0.199997l-0.200012,-0.300003l-0.200012,-0.300003l-0.299988,-0.199997l-0.299988,-0.199997l-0.200012,-0.300003l-0.200012,-0.300003l-0.299988,-0.199997l-0.299988,-0.199997l-0.200012,-0.300003l-0.200012,-0.300003l-0.299988,-0.199997l-0.299988,-0.199997l-0.200012,-0.300003l2,0l2,0l2,0.5l2,0.5l34,9.5q34,9.5 64,21.5q30,12 51.799988,23.699997q21.700012,11.800003 39.400024,24q17.799988,12.300003 32,25q14.299988,12.800003 25.799988,27.800003q11.5,15 18,28q6.5,13 9.5,26q3,13 2.5,26q-0.5,13 -4.5,27q-4,14 -11,28q-7,14 -17.5,28q-10.5,14 -22.200012,25.799988q-11.799988,11.700012 -31.299988,25.700012q-19.5,14 -41,25.5q-21.5,11.5 -48,21.5q-26.5,10 -31,11.5q-4.5,1.5 -6.5,2l-2,0.5l-1.5,0.5l-1.5,0.5l-1.5,0.5l-1.5,0.5l-1,0.299988l-1,0.200012l0,-1l0,-1l1,-0.200012l1,-0.299988l0.200012,-0.299988l0.299988,-0.200012l0.299988,-0.200012l0.200012,-0.299988l0.200012,-0.299988l0.299988,-0.200012l0.299988,-0.200012l0.200012,-0.299988l0.200012,-0.299988l0.299988,-0.200012l0.299988,-0.200012l0.200012,-0.299988l0.200012,-0.299988l0.299988,-0.200012l0.299988,-0.200012q0.200012,-0.299988 1.400024,-1.599976q1.299988,-1.200012 14,-16.400024q12.799988,-15.299988 21,-31q8.299988,-15.799988 11.299988,-29.799988q3,-14 2,-24q-1,-10 -4.5,-17.5q-3.5,-7.5 -8.799988,-12.299988q-5.200012,-4.700012 -12.700012,-7.700012q-7.5,-3 -19.5,-3q-12,0 -27,5q-15,5 -30.5,14.5q-15.5,9.5 -28.5,20.5l-13,11l-0.200012,0.299988l-0.299988,0.200012l-0.299988,0.200012l-0.200012,0.299988l-1.5,0.299988l-1.5,0.200012l-0.200012,-1q-0.299988,-1 -7.299988,-11q-7,-10 -13.700012,-14.799988q-6.799988,-4.700012 -13.299988,-5.200012q-6.5,-0.5 -14.5,3.5q-8,4 -14,10q-6,6 -17,21.5q-11,15.5 -31.200012,52.799988l-20.299988,37.200012l-0.5,1l-0.5,1l-0.5,1l-0.5,1l-0.5,1l-0.5,1l-0.5,-1l-0.5,-1l-0.5,-1l-0.5,-1l-0.299988,-0.200012l-0.200012,-0.299988l-0.200012,-0.299988l-0.299988,-0.200012l-0.5,-1q-0.5,-1 -15,-28.5q-14.5,-27.5 -26.5,-47q-12,-19.5 -21.700012,-30.299988q-9.799988,-10.700012 -16.799988,-14.700012q-7,-4 -13,-4.5q-6,-0.5 -9,0.5q-3,1 -9.5,6q-6.5,5 -13,15.299988l-6.5,10.200012l-1.5,-0.200012l-1.5,-0.299988l-0.200012,-0.299988l-0.299988,-0.200012l-0.299988,-0.200012l-0.200012,-0.299988l-13,-11q-13,-11 -28.5,-20.5q-15.5,-9.5 -28,-14q-12.5,-4.5 -23,-5.5q-10.5,-1 -19.5,1q-9,2 -14.5,5.299988q-5.5,3.200012 -5.5,4.200012q0,1 -1,1q-1,0 -5.199997,7.5q-4.300003,7.5 -5.800003,14.5q-1.5,7 -0.5,19q1,12 6,26q5,14 14.5,28.5q9.5,14.5 19.200012,25.299988q9.799988,10.700012 10,11l0.299988,0.200012l0.299988,0.200012l0.200012,0.299988l0.200012,0.299988l0.299988,0.200012l0.299988,0.200012l0.200012,0.299988l0.200012,0.299988l0.299988,0.200012l0.299988,0.200012l0.200012,0.299988l0.200012,0.299988l0.299988,0.200012l0.299988,0.200012l0.200012,0.299988l1,0.299988l1,0.200012l0,1l0,1l-1,-0.200012l-1,-0.299988l-1.5,-0.5l-1.5,-0.5l-1.5,-0.5l-1.5,-0.5l-1.5,-0.5q-1.5,-0.5 -11.5,-3.5q-10,-3 -35.5,-13.5q-25.5,-10.5 -45.5,-21.5q-20,-11 -36.5,-23q-16.5,-12 -28.300003,-23.700012q-11.699997,-11.799988 -22,-25q-10.199997,-13.299988 -18,-28q-7.699997,-14.799988 -11.699997,-29.299988q-4,-14.5 -4.5,-28q-0.5,-13.5 2.5,-26q3,-12.5 10,-26.5q7,-14 18.699997,-28.800003q11.800003,-14.699997 27.300003,-28.199997q15.5,-13.5 31.5,-24.5q16,-11 38.5,-23q22.5,-12 53,-24q30.5,-12 63,-21l32.5,-9l2,-0.5l2,-0.5l2,0l2,0l-0.200012,0.300003l-0.299988,0.199997l-0.299988,0.199997l-0.200012,0.300003l-0.200012,0.300003l-0.299988,0.199997l-0.299988,0.199997l-0.200012,0.300003l-0.200012,0.300003l-0.299988,0.199997l-0.299988,0.199997l-0.200012,0.300003l-0.200012,0.300003l-0.299988,0.199997l-0.299988,0.199997l-0.200012,0.300003l-0.200012,0.300003l-0.299988,0.199997l-0.299988,0.199997l-0.200012,0.300003l-0.200012,0.300003l-0.299988,0.199997l-0.299988,0.199997l-0.200012,0.300003l-10.200012,12.300003q-10.299988,12.199997 -15.799988,23.199997q-5.5,11 -7.5,19q-2,8 -1.5,16.5q0.5,8.5 4.200012,16.699997q3.799988,8.300003 8.299988,13.800003q4.5,5.5 14.5,12q10,6.5 23.5,11q13.5,4.5 31.5,4.5q18,0 25,-3.5q7,-3.5 12.799988,-8.199997q5.700012,-4.800003 12.700012,-15.300003q7,-10.5 12,-23.5q5,-13 7.5,-51q2.5,-38 4.200012,-46.800003q1.799988,-8.699997 9.599976,6q7.700012,14.800003 9.400024,20.300003q1.799988,5.5 11.299988,3.699997q9.5,-1.699997 23.5,-1.199997q14,0.5 20,1.800003q6,1.199997 10.799988,-10.800003q4.700012,-12 9.700012,-20.5q5,-8.5 8,19.5q3,28 4,47q1,19 6,32q5,13 11.299988,22.199997q6.200012,9.300003 11.700012,14.800003q5.5,5.5 13.5,9.5q8,4 26,4q18,0 31.5,-4.5q13.5,-4.5 22,-10q8.5,-5.5 14.700012,-12.199997q6.299988,-6.800003 9.799988,-15.300003q3.5,-8.5 3.5,-19q0,-10.5 -3.5,-20.5q-3.5,-10 -10.5,-21q-7,-11 -13.5,-18.5q-6.5,-7.5 -6.799988,-7.699997z"/>
  <path fill="#FFFFFF" fill-rule="evenodd" stroke="#FFFFFF" stroke-width="0.5px" d="m0,300.5l0,-300.5l517,0l517,0l0,300.5l0,300.5l-517,0l-517,0l0,-300.5zm963.799988,-110l0.200012,0.5l11.200012,14q11.299988,14 19.299988,29q8,15 13,32q5,17 6,25q1,8 0.5,23.5q-0.5,15.5 -4.5,31.5q-4,16 -11.5,31.5q-7.5,15.5 -8,16.5l-0.5,1l-0.299988,0.200012l-0.200012,0.299988l-0.200012,0.299988l-0.299988,0.200012l-0.5,1q-0.5,1 -0.799988,1l-0.200012,0l-0.200012,0.5q-0.299988,0.5 -0.599976,0.5l-0.200012,0l-0.200012,1l-0.299988,1l-0.299988,0l-0.200012,0l-0.200012,1q-0.299988,1 -12.299988,15.5q-12,14.5 -27.299988,28.5l-15.200012,14l-0.5,0l-0.5,0l-0.200012,0.5l-0.299988,0.5l-0.299988,0l-0.200012,0l-0.200012,0.5l-0.299988,0.5l-0.299988,0.200012l-0.200012,0.299988l-1,0.299988l-1,0.200012l-0.200012,0.5q-0.299988,0.5 -0.599976,0.5l-0.200012,0l-0.200012,0.5q-0.299988,0.5 -17.299988,12q-17,11.5 -38.700012,23.299988q-21.799988,11.700012 -51.299988,23.700012q-29.5,12 -64,22q-34.5,10 -72.5,17q-38,7 -76,10.5q-38,3.5 -82.5,3.5q-44.5,0 -75,-2.5q-30.5,-2.5 -67,-8.5q-36.5,-6 -71,-15q-34.5,-9 -63,-19.5q-28.5,-10.5 -55.5,-24q-27,-13.5 -46.5,-26q-19.5,-12.5 -34,-24.799988l-14.5,-12.200012l-0.5,-0.200012l-0.5,-0.299988l0,-0.299988l0,-0.200012l-0.5,-0.200012l-0.5,-0.299988l-0.199997,-0.299988l-0.300003,-0.200012l-0.300003,-0.200012l-0.199997,-0.299988l-0.199997,-0.299988l-0.300003,-0.200012l-0.300003,-0.200012l-0.199997,-0.299988l-0.199997,-0.299988l-0.300003,-0.200012l-0.300003,-0.200012l-0.199997,-0.299988l-0.199997,-0.299988q-0.300003,-0.200012 -3.300003,-3.200012q-3,-3 -16.5,-19.5q-13.5,-16.5 -23,-35.5q-9.5,-19 -13.5,-35q-4,-16 -4,-37q0,-21 4,-36.5q4,-15.5 11.299999,-30.5l7.200001,-15l0.200001,-0.5q0.299999,-0.5 0.599998,-0.5l0.200001,0l7.799999,-11.5q7.700001,-11.5 22.399998,-27.300003q14.800003,-15.699997 32.800003,-29.699997q18,-14 41.5,-28q23.5,-14 49,-25.5q25.5,-11.5 53,-21q27.5,-9.5 63,-18q35.5,-8.5 74,-14q38.5,-5.5 75,-7.5q36.5,-2 81,-0.5q44.5,1.5 83,6.5q38.5,5 74,13q35.5,8 70,19.5q34.5,11.5 62.5,24.5q28,13 49.5,26.5q21.5,13.5 32.700012,22.199997q11.299988,8.800003 22.799988,19.300003q11.5,10.5 14,13q2.5,2.5 2.799988,3z"/>
  <path fill="#FEFEFE" fill-rule="evenodd" stroke="#FEFEFE" stroke-width="0.5px" d="m951.5,205.800003l0.5,0.199997l0.200012,1l0.299988,1l0.299988,0.199997l0.200012,0.300003l9.200012,12.300003q9.299988,12.199997 16.299988,26.699997q7,14.5 10.5,28q3.5,13.5 3.5,34q0,20.5 -4,35.5q-4,15 -7.5,22.5q-3.5,7.5 -3.799988,8.5l-0.200012,1l-0.5,0.200012q-0.5,0.299988 -0.5,0.599976l0,0.200012l-0.200012,0.5q-0.299988,0.5 -4.299988,7q-4,6.5 -15,20.5q-11,14 -23,25l-12,11l-0.299988,0.200012l-0.200012,0.299988l-0.200012,0.299988l-0.299988,0.200012l-0.299988,0.200012l-0.200012,0.299988l0,0.299988l0,0.200012l-0.5,0.200012l-0.5,0.299988l-1,0.5q-1,0.5 -8,6q-7,5.5 -28.200012,18.799988q-21.299988,13.200012 -48.599976,26q-27.200012,12.700012 -58.200012,23.200012q-31,10.5 -66.5,18.5q-35.5,8 -73.5,13q-38,5 -83,6.5q-45,1.5 -80.5,-0.5q-35.5,-2 -71.5,-7q-36,-5 -72,-13.5q-36,-8.5 -68.5,-20q-32.5,-11.5 -58,-24q-25.5,-12.5 -45.5,-25.5q-20,-13 -36,-26.299988l-16,-13.200012l-0.199997,-0.5q-0.300003,-0.5 -4.600006,-5.299988q-4.199997,-4.700012 -14.699997,-18.200012q-10.5,-13.5 -18.300003,-28.200012q-7.699997,-14.799988 -11.699997,-29.799988q-4,-15 -4.5,-31q-0.5,-16 1.5,-27.5q2,-11.5 8.299999,-28l6.200001,-16.5l0.5,-0.199997q0.5,-0.300003 0.5,-0.600006l0,-0.199997l8.5,-12.800003q8.5,-12.699997 20,-25.699997q11.5,-13 28.5,-27q17,-14 37.5,-26.5q20.5,-12.5 45.5,-24.5q25,-12 55,-22.5q30,-10.5 66,-19q36,-8.5 72,-13.5q36,-5 71.5,-7q35.5,-2 80.5,-0.5q45,1.5 83,6.5q38,5 73.5,13q35.5,8 66.5,18.5q31,10.5 57,22.5q26,12 46.799988,24.699997q20.700012,12.800003 35.400024,24.600006q14.799988,11.699997 25.799988,22.699997q11,11 11.5,11.300003zm-259.299988,-103l-0.200012,-0.300003l-0.200012,-0.300003l-0.299988,-0.199997l-0.299988,-0.199997l-0.200012,-0.300003l-0.200012,-0.300003l-0.299988,-0.199997l-0.299988,-0.199997l-0.200012,-0.300003l-0.200012,-0.300003l-0.299988,-0.199997l-0.299988,-0.199997l-0.200012,-0.300003l-0.200012,-0.300003l-0.299988,-0.199997l-0.299988,-0.199997l-0.200012,-0.300003l-0.200012,-0.300003l-0.299988,-0.199997l-0.299988,-0.199997l-0.200012,-0.300003l-0.200012,-0.300003l-0.299988,-0.199997l-0.299988,-0.199997l-0.200012,-0.300003l2,0l2,0l2,0.5l2,0.5l34,9.5q34,9.5 64,21.5q30,12 51.799988,23.699997q21.700012,11.800003 39.400024,24q17.799988,12.300003 32,25q14.299988,12.800003 25.799988,27.800003q11.5,15 18,28q6.5,13 9.5,26q3,13 2.5,26q-0.5,13 -4.5,27q-4,14 -11,28q-7,14 -17.5,28q-10.5,14 -22.200012,25.799988q-11.799988,11.700012 -31.299988,25.700012q-19.5,14 -41,25.5q-21.5,11.5 -48,21.5q-26.5,10 -31,11.5q-4.5,1.5 -6.5,2l-2,0.5l-1.5,0.5l-1.5,0.5l-1.5,0.5l-1.5,0.5l-1,0.299988l-1,0.200012l0,-1l0,-1l1,-0.200012l1,-0.299988l0.200012,-0.299988l0.299988,-0.200012l0.299988,-0.200012l0.200012,-0.299988l0.200012,-0.299988l0.299988,-0.200012l0.299988,-0.200012l0.200012,-0.299988l0.200012,-0.299988l0.299988,-0.200012l0.299988,-0.200012l0.200012,-0.299988l0.200012,-0.299988l0.299988,-0.200012l0.299988,-0.200012q0.200012,-0.299988 1.400024,-1.599976q1.299988,-1.200012 14,-16.400024q12.799988,-15.299988 21,-31q8.299988,-15.799988 11.299988,-29.799988q3,-14 2,-24q-1,-10 -4.5,-17.5q-3.5,-7.5 -8.799988,-12.299988q-5.200012,-4.700012 -12.700012,-7.700012q-7.5,-3 -19.5,-3q-12,0 -27,5q-15,5 -30.5,14.5q-15.5,9.5 -28.5,20.5l-13,11l-0.200012,0.299988l-0.299988,0.200012l-0.299988,0.200012l-0.200012,0.299988l-1.5,0.299988l-1.5,0.200012l-0.200012,-1q-0.299988,-1 -7.299988,-11q-7,-10 -13.700012,-14.799988q-6.799988,-4.700012 -13.299988,-5.200012q-6.5,-0.5 -14.5,3.5q-8,4 -14,10q-6,6 -17,21.5q-11,15.5 -31.200012,52.799988l-20.299988,37.200012l-0.5,1l-0.5,1l-0.5,1l-0.5,1l-0.5,1l-0.5,1l-0.5,-1l-0.5,-1l-0.5,-1l-0.5,-1l-0.299988,-0.200012l-0.200012,-0.299988l-0.200012,-0.299988l-0.299988,-0.200012l-0.5,-1q-0.5,-1 -15,-28.5q-14.5,-27.5 -26.5,-47q-12,-19.5 -21.700012,-30.299988q-9.799988,-10.700012 -16.799988,-14.700012q-7,-4 -13,-4.5q-6,-0.5 -9,0.5q-3,1 -9.5,6q-6.5,5 -13,15.299988l-6.5,10.200012l-1.5,-0.200012l-1.5,-0.299988l-0.200012,-0.299988l-0.299988,-0.200012l-0.299988,-0.200012l-0.200012,-0.299988l-13,-11q-13,-11 -28.5,-20.5q-15.5,-9.5 -28,-14q-12.5,-4.5 -23,-5.5q-10.5,-1 -19.5,1q-9,2 -14.5,5.299988q-5.5,3.200012 -5.5,4.200012q0,1 -1,1q-1,0 -5.199997,7.5q-4.300003,7.5 -5.800003,14.5q-1.5,7 -0.5,19q1,12 6,26q5,14 14.5,28.5q9.5,14.5 19.200012,25.299988q9.799988,10.700012 10,11l0.299988,0.200012l0.299988,0.200012l0.200012,0.299988l0.200012,0.299988l0.299988,0.200012l0.299988,0.200012l0.200012,0.299988l0.200012,0.299988l0.299988,0.200012l0.299988,0.200012l0.200012,0.299988l0.200012,0.299988l0.299988,0.200012l0.299988,0.200012l0.200012,0.299988l1,0.299988l1,0.200012l0,1l0,1l-1,-0.200012l-1,-0.299988l-1.5,-0.5l-1.5,-0.5l-1.5,-0.5l-1.5,-0.5l-1.5,-0.5q-1.5,-0.5 -11.5,-3.5q-10,-3 -35.5,-13.5q-25.5,-10.5 -45.5,-21.5q-20,-11 -36.5,-23q-16.5,-12 -28.300003,-23.700012q-11.699997,-11.799988 -22,-25q-10.199997,-13.299988 -18,-28q-7.699997,-14.799988 -11.699997,-29.299988q-4,-14.5 -4.5,-28q-0.5,-13.5 2.5,-26q3,-12.5 10,-26.5q7,-14 18.699997,-28.800003q11.800003,-14.699997 27.300003,-28.199997q15.5,-13.5 31.5,-24.5q16,-11 38.5,-23q22.5,-12 53,-24q30.5,-12 63,-21l32.5,-9l2,-0.5l2,-0.5l2,0l2,0l-0.200012,0.300003l-0.299988,0.199997l-0.299988,0.199997l-0.200012,0.300003l-0.200012,0.300003l-0.299988,0.199997l-0.299988,0.199997l-0.200012,0.300003l-0.200012,0.300003l-0.299988,0.199997l-0.299988,0.199997l-0.200012,0.300003l-0.200012,0.300003l-0.299988,0.199997l-0.299988,0.199997l-0.200012,0.300003l-0.200012,0.300003l-0.299988,0.199997l-0.299988,0.199997l-0.200012,0.300003l-0.200012,0.300003l-0.299988,0.199997l-0.299988,0.199997l-0.200012,0.300003l-10.200012,12.300003q-10.299988,12.199997 -15.799988,23.199997q-5.5,11 -7.5,19q-2,8 -1.5,16.5q0.5,8.5 4.200012,16.699997q3.799988,8.300003 8.299988,13.800003q4.5,5.5 14.5,12q10,6.5 23.5,11q13.5,4.5 31.5,4.5q18,0 25,-3.5q7,-3.5 12.799988,-8.199997q5.700012,-4.800003 12.700012,-15.300003q7,-10.5 12,-23.5q5,-13 7.5,-51q2.5,-38 4.200012,-46.800003q1.799988,-8.699997 9.599976,6q7.700012,14.800003 9.400024,20.300003q1.799988,5.5 11.299988,3.699997q9.5,-1.699997 23.5,-1.199997q14,0.5 20,1.800003q6,1.199997 10.799988,-10.800003q4.700012,-12 9.700012,-20.5q5,-8.5 8,19.5q3,28 4,47q1,19 6,32q5,13 11.299988,22.199997q6.200012,9.300003 11.700012,14.800003q5.5,5.5 13.5,9.5q8,4 26,4q18,0 31.5,-4.5q13.5,-4.5 22,-10q8.5,-5.5 14.700012,-12.199997q6.299988,-6.800003 9.799988,-15.300003q3.5,-8.5 3.5,-19q0,-10.5 -3.5,-20.5q-3.5,-10 -10.5,-21q-7,-11 -13.5,-18.5q-6.5,-7.5 -6.799988,-7.699997z"/>
  <path fill="#030303" fill-rule="evenodd" stroke="#030303" stroke-width="0.5px" d="m963.799988,190.5l0.200012,0.5l0,1.800003q0,1.699997 0.200012,2l0.299988,0.199997l0,1.5l0,1.5l-0.299988,-0.199997q-0.200012,-0.300003 -1.200012,-0.600006q-1,-0.199997 -1.200012,0.800003q-0.299988,1 -3,1.5l-2.799988,0.5l0.5,1.199997q0.5,1.300003 1.299988,0.600006q0.700012,-0.800003 1,0.699997l0.200012,1.5l-1,0l-1,0l-0.200012,1l-0.299988,1l-0.299988,-0.199997l-0.200012,-0.300003l-0.200012,-0.300003l-0.299988,-0.199997l-0.5,-1q-0.5,-1 -1.200012,-0.199997l-0.799988,0.699997l-0.200012,0.300003l-0.299988,0.199997l-0.299988,0.199997l-0.200012,0.300003l0,0.300003l0,0.199997l-0.5,-0.199997q-0.5,-0.300003 -11.5,-11.300003q-11,-11 -25.799988,-22.699997q-14.700012,-11.800003 -35.400024,-24.600006q-20.799988,-12.699997 -46.799988,-24.699997q-26,-12 -57,-22.5q-31,-10.5 -66.5,-18.5q-35.5,-8 -73.5,-13q-38,-5 -83,-6.5q-45,-1.5 -80.5,0.5q-35.5,2 -71.5,7q-36,5 -72,13.5q-36,8.5 -66,19q-30,10.5 -55,22.5q-25,12 -45.5,24.5q-20.5,12.5 -37.5,26.5q-17,14 -28.5,27q-11.5,13 -20,25.699997l-8.5,12.800003l-0.199997,0q-0.300003,0 -0.600006,0.5l-0.199997,0.5l-2,0.199997l-2,0.300003l-1,0.300003l-1,0.199997l0,-1l0,-1l1.5,-0.199997q1.5,-0.300003 -2,-1q-3.5,-0.800003 -3.700001,-3.800003q-0.299999,-3 -2,-6l-1.799999,-3l0.5,-0.199997q0.5,-0.300003 0.5,-0.600006l0,-0.199997l7.799999,-11.5q7.700001,-11.5 22.399998,-27.300003q14.800003,-15.699997 32.800003,-29.699997q18,-14 41.5,-28q23.5,-14 49,-25.5q25.5,-11.5 53,-21q27.5,-9.5 63,-18q35.5,-8.5 74,-14q38.5,-5.5 75,-7.5q36.5,-2 81,-0.5q44.5,1.5 83,6.5q38.5,5 74,13q35.5,8 70,19.5q34.5,11.5 62.5,24.5q28,13 49.5,26.5q21.5,13.5 32.700012,22.199997q11.299988,8.800003 22.799988,19.300003q11.5,10.5 14,13q2.5,2.5 2.799988,3z"/>
  <path fill="#020202" fill-rule="evenodd" stroke="#020202" stroke-width="0.5px" d="m102.800003,428.5l1.199997,-1.5l16,13.200012q16,13.299988 36,26.299988q20,13 45.5,25.5q25.5,12.5 58,24q32.5,11.5 68.5,20q36,8.5 72,13.5q36,5 71.5,7q35.5,2 80.5,0.5q45,-1.5 83,-6.5q38,-5 73.5,-13q35.5,-8 66.5,-18.5q31,-10.5 58.200012,-23.200012q27.299988,-12.799988 48.599976,-26q21.200012,-13.299988 28.200012,-18.799988q7,-5.5 8,-6l1,-0.5l0.5,-0.299988l0.5,-0.200012l1,0.200012l1,0.299988l0.200012,0.299988l0.299988,0.200012l0.299988,0.200012l0.200012,0.299988l1.5,0.299988l1.5,0.200012l0,1.5l0,1.5l1,0l1,0l0.5,4.200012q0.5,4.299988 0.700012,4.599976q0.299988,0.200012 0.599976,1.200012l0.200012,1l0,0.200012q0,0.299988 -1,0.599976l-1,0.200012l-0.200012,-0.5q-0.299988,-0.5 -1.599976,-1q-1.200012,-0.5 -1,0.5l0.299988,1l-0.299988,0.799988q-0.200012,0.700012 -0.200012,1l0,0.200012l-0.5,0.200012q-0.5,0.299988 -0.5,0.599976l0,0.200012l-0.200012,0.5q-0.299988,0.5 -17.299988,12q-17,11.5 -38.700012,23.299988q-21.799988,11.700012 -51.299988,23.700012q-29.5,12 -64,22q-34.5,10 -72.5,17q-38,7 -76,10.5q-38,3.5 -82.5,3.5q-44.5,0 -75,-2.5q-30.5,-2.5 -67,-8.5q-36.5,-6 -71,-15q-34.5,-9 -63,-19.5q-28.5,-10.5 -55.5,-24q-27,-13.5 -46.5,-26q-19.5,-12.5 -34,-24.799988l-14.5,-12.200012l-0.5,-0.200012l-0.5,-0.299988l0,-0.299988l0,-0.200012l0,-0.200012q0,-0.299988 0.800003,-1l0.699997,-0.799988l-0.300003,-0.200012l-0.199997,-0.299988l0.199997,-0.299988l0.300003,-0.200012l0.5,-2q0.5,-2 0.800003,-3.5l0.199997,-1.5l2,-0.200012q2,-0.299988 2.199997,-1.599976q0.300003,-1.200012 1.600006,-2.700012z"/>
  <path fill="#020202" fill-rule="evenodd" stroke="#020202" stroke-width="0.5px" d="m964,192.800003l0,-1.800003l11.200012,14q11.299988,14 19.299988,29q8,15 13,32q5,17 6,25q1,8 0.5,23.5q-0.5,15.5 -4.5,31.5q-4,16 -11.5,31.5q-7.5,15.5 -8,16.5l-0.5,1l-0.299988,0.200012l-0.200012,0.299988l-0.200012,0.299988l-0.299988,0.200012l-0.5,1.5l-0.5,1.5l-0.299988,0.200012l-0.200012,0.299988l-0.200012,0.299988l-0.299988,0.200012l-0.299988,0.200012l-0.200012,0.299988l-0.200012,0.299988l-0.299988,0.200012l-0.299988,0l-0.200012,0l0.200012,-2l0.299988,-2l0,-0.5l0,-0.5l-0.299988,-0.200012l-0.200012,-0.299988l-0.200012,-0.299988l-0.299988,-0.200012l-0.299988,-0.200012l-0.200012,-0.299988l0.200012,-0.299988l0.299988,-0.200012l0,-0.5q0,-0.5 -0.700012,-5q-0.799988,-4.5 -2.799988,-4.5q-2,0 -1.799988,-1q0.299988,-1 0.599976,-3.5q0.200012,-2.5 -1.799988,-2l-2,0.5l0.200012,-1q0.299988,-1 4.299988,-9q4,-8 8,-23q4,-15 4,-35.5q0,-20.5 -3.5,-34q-3.5,-13.5 -10.5,-28q-7,-14.5 -16.299988,-26.699997l-9.200012,-12.300003l-0.200012,-0.300003l-0.299988,-0.199997l-0.299988,-1l-0.200012,-1l0,-0.199997l0,-0.300003l0.200012,-0.300003l0.299988,-0.199997l0.299988,-0.199997l0.200012,-0.300003l0.799988,-0.699997q0.700012,-0.800003 1.200012,0.199997l0.5,1l0.299988,0.199997l0.200012,0.300003l0.200012,0.300003l0.299988,0.199997l0,-1.5q0,-1.5 -0.299988,-3l-0.200012,-1.5l2.200012,-0.5q2.299988,-0.5 2,-1.5q-0.200012,-1 1.799988,-0.800003q2,0.300003 2.200012,0.600006l0.299988,0.199997l0,-1.5l0,-1.5l-0.299988,-0.199997q-0.200012,-0.300003 -0.200012,-2zm-5.799988,9q-0.200012,-0.300003 0,-0.600006q0.299988,-0.199997 0.299988,0.300003q0,0.5 -0.299988,0.300003z"/>
  <path fill="#020202" fill-rule="evenodd" stroke="#020202" stroke-width="0.5px" d="m52.799999,226l0.200001,0l1,2.800003q1,2.699997 1.5,6.399994q0.5,3.800003 4,4.600006q3.5,0.699997 2,1l-1.5,0.199997l0,1l0,1l1,-0.199997l1,-0.300003l1.5,-0.5q1.5,-0.5 2.5,-0.800003l1,-0.199997l-6.200001,15q-6.299999,15 -8.799999,28.5q-2.5,13.5 -2,29.5q0.5,16 4.5,31q4,15 11.699997,29.799988q7.800003,14.700012 18.300003,28.200012q10.5,13.5 14.699997,18.200012q4.300003,4.799988 4.600006,5.299988l0.199997,0.5l-1.199997,1.5q-1.300003,1.5 -1.600006,2.700012q-0.199997,1.299988 -2.199997,1.599976l-2,0.200012l-0.199997,1.5q-0.300003,1.5 -0.800003,3.5l-0.5,2l-0.300003,0.200012l-0.199997,0.299988l0.199997,0.299988l0.300003,0.200012l0,1.5l0,1.5l-0.300003,0l-0.199997,0l-0.5,-0.200012l-0.5,-0.299988l0,-0.299988l0,-0.200012l-0.5,-0.200012l-0.5,-0.299988l-0.199997,-0.299988l-0.300003,-0.200012l-0.300003,-0.200012l-0.199997,-0.299988l-0.199997,-0.299988l-0.300003,-0.200012l-0.300003,-0.200012l-0.199997,-0.299988l-0.199997,-0.299988l-0.300003,-0.200012l-0.300003,-0.200012l-0.199997,-0.299988l-0.199997,-0.299988q-0.300003,-0.200012 -3.300003,-3.200012q-3,-3 -16.5,-19.5q-13.5,-16.5 -23,-35.5q-9.5,-19 -13.5,-35q-4,-16 -4,-37q0,-21 4,-36.5q4,-15.5 11.299999,-30.5l7.200001,-15l0.200001,-0.5q0.299999,-0.5 0.599998,-0.5z"/>
  <path fill="#030303" fill-rule="evenodd" stroke="#030303" stroke-width="0.5px" d="m976.799988,377.5l0.200012,-0.5l1.5,0q1.5,0 1.299988,2.5q-0.299988,2.5 -0.599976,3.5q-0.200012,1 1.799988,1q2,0 2.799988,4.5q0.700012,4.5 0.700012,5l0,0.5l-0.299988,0.200012l-0.200012,0.299988l0.200012,0.299988l0.299988,0.200012l0.299988,0.200012l0.200012,0.299988l1,0.299988q1,0.200012 1,1.200012l0,1l-0.5,0.200012q-0.5,0.299988 -0.5,0.599976l0,0.200012l-0.200012,0q-0.299988,0 -0.599976,1l-0.200012,1l-0.200012,1q-0.299988,1 -12.299988,15.5q-12,14.5 -27.299988,28.5l-15.200012,14l-0.200012,-1q-0.299988,-1 -0.599976,0l-0.200012,1l-0.200012,0.5l-0.299988,0.5l-0.299988,0l-0.200012,0l-0.200012,0.5l-0.299988,0.5l-0.299988,0.200012l-0.200012,0.299988l-0.200012,0.299988l-0.299988,0.200012l-0.299988,0.200012l-0.200012,0.299988l-1,0.299988l-1,0.200012l0,-1l0,-1l1,-0.200012l1,-0.299988l-0.200012,-0.299988l-0.299988,-0.200012l-0.299988,-1q-0.200012,-1 0.799988,-1q1,0 1.200012,-1q0.299988,-1 0.599976,-5l0.200012,-4l-1,-0.200012q-1,-0.299988 -3,-0.599976q-2,-0.200012 -1.799988,-1.700012l0.299988,-1.5l-0.299988,-0.200012l-0.200012,-0.299988l-1,-0.299988l-1,-0.200012l0,-0.200012l0,-0.299988l0.200012,-0.299988l0.299988,-0.200012l0.299988,-0.200012l0.200012,-0.299988l0.200012,-0.299988l0.299988,-0.200012l12,-11q12,-11 23,-25q11,-14 15,-20.5q4,-6.5 4.299988,-7l0.200012,-0.5l0.200012,0q0.299988,0 0.599976,-0.5z"/>
 </g>
</svg>
